<?xml version="1.0" encoding="UTF-8" standalone="no"?>
<!DOCTYPE svg PUBLIC "-//W3C//DTD SVG 1.1//EN"
 "http://www.w3.org/Graphics/SVG/1.1/DTD/svg11.dtd">
<!-- Generated by graphviz version 2.43.0 (0)
 -->
<!-- Title: G Pages: 1 -->
<svg width="979pt" height="260pt"
 viewBox="0.00 0.00 979.00 260.00" xmlns="http://www.w3.org/2000/svg" xmlns:xlink="http://www.w3.org/1999/xlink">
<g id="graph0" class="graph" transform="scale(1 1) rotate(0) translate(4 256)">
<title>G</title>
<polygon fill="white" stroke="transparent" points="-4,4 -4,-256 975,-256 975,4 -4,4"/>
<!-- aws_eip.eip -->
<g id="node1" class="node">
<title>aws_eip.eip</title>
<polygon fill="none" stroke="black" points="890.5,-143 793.5,-143 793.5,-107 890.5,-107 890.5,-143"/>
<text text-anchor="middle" x="842" y="-121.3" font-family="sans-serif" font-size="14.00">aws_eip.eip</text>
</g>
<!-- aws_instance.web_server -->
<g id="node2" class="node">
<title>aws_instance.web_server</title>
<polygon fill="none" stroke="black" points="677,-143 484,-143 484,-107 677,-107 677,-143"/>
<text text-anchor="middle" x="580.5" y="-121.3" font-family="sans-serif" font-size="14.00">aws_instance.web_server</text>
</g>
<!-- aws_eip.eip&#45;&gt;aws_instance.web_server -->
<g id="edge1" class="edge">
<title>aws_eip.eip&#45;&gt;aws_instance.web_server</title>
<path fill="none" stroke="black" d="M793.4,-125C763.71,-125 724.27,-125 687.47,-125"/>
<polygon fill="black" stroke="black" points="687.17,-121.5 677.17,-125 687.17,-128.5 687.17,-121.5"/>
</g>
<!-- aws_internet_gateway.igw -->
<g id="node3" class="node">
<title>aws_internet_gateway.igw</title>
<polygon fill="none" stroke="black" points="411,-90 215,-90 215,-54 411,-54 411,-90"/>
<text text-anchor="middle" x="313" y="-68.3" font-family="sans-serif" font-size="14.00">aws_internet_gateway.igw</text>
</g>
<!-- aws_instance.web_server&#45;&gt;aws_internet_gateway.igw -->
<g id="edge2" class="edge">
<title>aws_instance.web_server&#45;&gt;aws_internet_gateway.igw</title>
<path fill="none" stroke="black" d="M489.24,-106.98C465.2,-102.18 439.07,-96.97 414.51,-92.06"/>
<polygon fill="black" stroke="black" points="414.95,-88.58 404.46,-90.06 413.58,-95.45 414.95,-88.58"/>
</g>
<!-- aws_key_pair.deployer -->
<g id="node4" class="node">
<title>aws_key_pair.deployer</title>
<polygon fill="none" stroke="black" points="399,-198 227,-198 227,-162 399,-162 399,-198"/>
<text text-anchor="middle" x="313" y="-176.3" font-family="sans-serif" font-size="14.00">aws_key_pair.deployer</text>
</g>
<!-- aws_instance.web_server&#45;&gt;aws_key_pair.deployer -->
<g id="edge3" class="edge">
<title>aws_instance.web_server&#45;&gt;aws_key_pair.deployer</title>
<path fill="none" stroke="black" d="M495.35,-143.06C479.62,-146.4 463.31,-149.83 448,-153 435.41,-155.61 422.14,-158.32 409.05,-160.98"/>
<polygon fill="black" stroke="black" points="408.2,-157.58 399.09,-163 409.59,-164.44 408.2,-157.58"/>
</g>
<!-- aws_security_group.ssh_http_access -->
<g id="node7" class="node">
<title>aws_security_group.ssh_http_access</title>
<polygon fill="none" stroke="black" points="448,-144 178,-144 178,-108 448,-108 448,-144"/>
<text text-anchor="middle" x="313" y="-122.3" font-family="sans-serif" font-size="14.00">aws_security_group.ssh_http_access</text>
</g>
<!-- aws_instance.web_server&#45;&gt;aws_security_group.ssh_http_access -->
<g id="edge4" class="edge">
<title>aws_instance.web_server&#45;&gt;aws_security_group.ssh_http_access</title>
<path fill="none" stroke="black" d="M483.65,-125.36C475.32,-125.39 466.78,-125.42 458.18,-125.46"/>
<polygon fill="black" stroke="black" points="458.05,-121.96 448.06,-125.5 458.08,-128.96 458.05,-121.96"/>
</g>
<!-- aws_subnet.public_subnet -->
<g id="node9" class="node">
<title>aws_subnet.public_subnet</title>
<polygon fill="none" stroke="black" points="413,-36 213,-36 213,0 413,0 413,-36"/>
<text text-anchor="middle" x="313" y="-14.3" font-family="sans-serif" font-size="14.00">aws_subnet.public_subnet</text>
</g>
<!-- aws_instance.web_server&#45;&gt;aws_subnet.public_subnet -->
<g id="edge5" class="edge">
<title>aws_instance.web_server&#45;&gt;aws_subnet.public_subnet</title>
<path fill="none" stroke="black" d="M500.79,-106.8C494.86,-103.99 489.18,-100.74 484,-97 461.21,-80.55 471.48,-60.45 448,-45 440.28,-39.92 431.82,-35.76 423.01,-32.36"/>
<polygon fill="black" stroke="black" points="423.92,-28.98 413.33,-28.96 421.6,-35.58 423.92,-28.98"/>
</g>
<!-- aws_vpc.main&#45;net -->
<g id="node10" class="node">
<title>aws_vpc.main&#45;net</title>
<polygon fill="none" stroke="black" points="142,-117 0,-117 0,-81 142,-81 142,-117"/>
<text text-anchor="middle" x="71" y="-95.3" font-family="sans-serif" font-size="14.00">aws_vpc.main&#45;net</text>
</g>
<!-- aws_internet_gateway.igw&#45;&gt;aws_vpc.main&#45;net -->
<g id="edge6" class="edge">
<title>aws_internet_gateway.igw&#45;&gt;aws_vpc.main&#45;net</title>
<path fill="none" stroke="black" d="M214.73,-82.94C193.94,-85.28 172.21,-87.73 152.16,-89.98"/>
<polygon fill="black" stroke="black" points="151.69,-86.51 142.15,-91.11 152.48,-93.47 151.69,-86.51"/>
</g>
<!-- aws_route_table.public -->
<g id="node5" class="node">
<title>aws_route_table.public</title>
<polygon fill="none" stroke="black" points="667.5,-88 493.5,-88 493.5,-52 667.5,-52 667.5,-88"/>
<text text-anchor="middle" x="580.5" y="-66.3" font-family="sans-serif" font-size="14.00">aws_route_table.public</text>
</g>
<!-- aws_route_table.public&#45;&gt;aws_internet_gateway.igw -->
<g id="edge7" class="edge">
<title>aws_route_table.public&#45;&gt;aws_internet_gateway.igw</title>
<path fill="none" stroke="black" d="M493.3,-70.65C470.38,-70.82 445.34,-71.01 421.44,-71.19"/>
<polygon fill="black" stroke="black" points="421.24,-67.69 411.27,-71.27 421.3,-74.69 421.24,-67.69"/>
</g>
<!-- aws_route_table_association.public -->
<g id="node6" class="node">
<title>aws_route_table_association.public</title>
<polygon fill="none" stroke="black" points="971,-64 713,-64 713,-28 971,-28 971,-64"/>
<text text-anchor="middle" x="842" y="-42.3" font-family="sans-serif" font-size="14.00">aws_route_table_association.public</text>
</g>
<!-- aws_route_table_association.public&#45;&gt;aws_route_table.public -->
<g id="edge8" class="edge">
<title>aws_route_table_association.public&#45;&gt;aws_route_table.public</title>
<path fill="none" stroke="black" d="M712.77,-57.86C700.92,-58.96 689.05,-60.05 677.56,-61.12"/>
<polygon fill="black" stroke="black" points="677.21,-57.63 667.57,-62.04 677.85,-64.6 677.21,-57.63"/>
</g>
<!-- aws_route_table_association.public&#45;&gt;aws_subnet.public_subnet -->
<g id="edge9" class="edge">
<title>aws_route_table_association.public&#45;&gt;aws_subnet.public_subnet</title>
<path fill="none" stroke="black" d="M712.76,-39.19C624.19,-34.48 507.66,-28.29 423.46,-23.82"/>
<polygon fill="black" stroke="black" points="423.53,-20.31 413.36,-23.28 423.16,-27.3 423.53,-20.31"/>
</g>
<!-- aws_security_group.ssh_http_access&#45;&gt;aws_vpc.main&#45;net -->
<g id="edge10" class="edge">
<title>aws_security_group.ssh_http_access&#45;&gt;aws_vpc.main&#45;net</title>
<path fill="none" stroke="black" d="M177.97,-110.92C169.19,-109.93 160.51,-108.96 152.13,-108.01"/>
<polygon fill="black" stroke="black" points="152.39,-104.52 142.06,-106.88 151.6,-111.48 152.39,-104.52"/>
</g>
<!-- aws_subnet.private_subnet -->
<g id="node8" class="node">
<title>aws_subnet.private_subnet</title>
<polygon fill="none" stroke="black" points="416,-252 210,-252 210,-216 416,-216 416,-252"/>
<text text-anchor="middle" x="313" y="-230.3" font-family="sans-serif" font-size="14.00">aws_subnet.private_subnet</text>
</g>
<!-- aws_subnet.private_subnet&#45;&gt;aws_vpc.main&#45;net -->
<g id="edge11" class="edge">
<title>aws_subnet.private_subnet&#45;&gt;aws_vpc.main&#45;net</title>
<path fill="none" stroke="black" d="M209.85,-220.13C198.76,-216.68 187.91,-212.37 178,-207 141.43,-187.17 109.55,-150.56 90.55,-125.51"/>
<polygon fill="black" stroke="black" points="93.14,-123.13 84.37,-117.18 87.51,-127.29 93.14,-123.13"/>
</g>
<!-- aws_subnet.public_subnet&#45;&gt;aws_vpc.main&#45;net -->
<g id="edge12" class="edge">
<title>aws_subnet.public_subnet&#45;&gt;aws_vpc.main&#45;net</title>
<path fill="none" stroke="black" d="M212.75,-34.82C200.91,-37.76 189.09,-41.14 178,-45 154.93,-53.03 130.55,-65.17 111,-75.9"/>
<polygon fill="black" stroke="black" points="109.12,-72.94 102.1,-80.87 112.53,-79.05 109.12,-72.94"/>
</g>
</g>
</svg>
